<?xml version="1.0" encoding="UTF-8" standalone="no"?>
<!-- Created with Inkscape (http://www.inkscape.org/) -->

<svg
   width="65.323174mm"
   height="42.89275mm"
   viewBox="0 0 65.323173 42.892749"
   version="1.1"
   id="svg1"
   xml:space="preserve"
   inkscape:version="1.3 (0e150ed6c4, 2023-07-21)"
   sodipodi:docname="plugin_logo.svg"
   inkscape:export-filename="plugin_logo.png"
   inkscape:export-xdpi="96"
   inkscape:export-ydpi="96"
   xmlns:inkscape="http://www.inkscape.org/namespaces/inkscape"
   xmlns:sodipodi="http://sodipodi.sourceforge.net/DTD/sodipodi-0.dtd"
   xmlns="http://www.w3.org/2000/svg"
   xmlns:svg="http://www.w3.org/2000/svg"><sodipodi:namedview
     id="namedview1"
     pagecolor="#ffffff"
     bordercolor="#000000"
     borderopacity="0.25"
     inkscape:showpageshadow="2"
     inkscape:pageopacity="0.0"
     inkscape:pagecheckerboard="0"
     inkscape:deskcolor="#d1d1d1"
     inkscape:document-units="mm"
     inkscape:zoom="1.4142136"
     inkscape:cx="190.21172"
     inkscape:cy="143.18912"
     inkscape:window-width="3840"
     inkscape:window-height="2054"
     inkscape:window-x="-11"
     inkscape:window-y="-11"
     inkscape:window-maximized="1"
     inkscape:current-layer="layer1" /><defs
     id="defs1" /><g
     inkscape:label="Layer 1"
     inkscape:groupmode="layer"
     id="layer1"
     transform="translate(-53.09075,-70.683723)"><g
       id="g14"
       transform="matrix(7.4143688,0,0,7.4143688,-340.54371,-453.39143)"><path
         style="fill:none;stroke:#0072bd;stroke-width:0.173165;stroke-opacity:1"
         d="m 56.662097,70.765707 -2.20402,0.748032 -0.08015,1.148762 1.80329,1.135405 -1.92794,0.405924"
         id="path1"
         sodipodi:nodetypes="ccccc" /><path
         style="fill:none;stroke:#d95319;stroke-width:0.173165;stroke-opacity:1"
         d="m 56.635383,73.984913 0.08015,-3.072272 1.442632,0.280513 -0.01336,1.389201 -2.257452,-0.06679"
         id="path2"
         sodipodi:nodetypes="ccccc" /><path
         style="fill:none;stroke:#edb120;stroke-width:0.173165;stroke-opacity:1"
         d="m 59.056803,74.200352 -0.245598,-1.042585 0.653868,-2.110499 -1.312647,0.243094 2.070107,0.02296"
         id="path3"
         sodipodi:nodetypes="ccccc" /><path
         style="fill:none;stroke:#7e2f8e;stroke-width:0.264583;stroke-opacity:1"
         d="m 53.445833,76.390168 0.669726,-1.612305 0.603582,1.645379 -0.08268,-1.000456 -1.537893,-0.09095"
         id="path4" /><path
         style="fill:none;stroke:#77ac30;stroke-width:0.264583;stroke-opacity:1"
         d="m 54.991995,76.398436 -0.01654,-1.703255 0.454753,1.68672 0.198438,-1.678451"
         id="path5" /><path
         style="fill:none;stroke:#4dbeee;stroke-width:0.264583;stroke-opacity:1"
         d="m 55.785742,76.33229 0.206705,-1.670182 0.802019,1.587501 -0.93431,-0.752409"
         id="path6" /><path
         style="fill:none;stroke:#a2142f;stroke-width:0.264583;stroke-opacity:1"
         d="m 56.835807,74.637304 0.338997,1.513085 1.116212,-0.165363"
         id="path7" /><path
         style="fill:none;stroke:#0072bd;stroke-width:0.264583;stroke-opacity:1"
         d="m 58.042968,74.562889 0.429948,0.545704 0.405144,-0.496093 -0.454753,1.430403"
         id="path8" /><path
         style="fill:none;stroke:#d95319;stroke-width:0.264583;stroke-opacity:1"
         d="m 60.081087,74.777864 -0.569567,0.206553 -0.311,0.231663 0.802019,0.264584 -0.442329,0.356717 -0.359689,0.172449"
         id="path9"
         sodipodi:nodetypes="cccccc" /><path
         style="fill:none;stroke:#edb120;stroke-width:0.264583;stroke-opacity:1"
         d="m 60.531705,74.810936 -0.181901,1.132748"
         id="path10" /><path
         style="fill:none;stroke:#edb120;stroke-width:0.264583;stroke-opacity:1"
         d="m 60.655729,74.397525 -0.314193,0.157096 -0.140559,-0.355533 0.438216,0.42168"
         id="path12" /><path
         style="fill:none;stroke:#7e2f8e;stroke-width:0.264583;stroke-opacity:1"
         d="m 61.573502,74.645572 -0.595312,0.198437 0.01654,0.322462 0.63665,0.363802 -0.686263,0.380339"
         id="path13" /></g></g></svg>
